<?xml version="1.0" standalone="no"?>
<!DOCTYPE svg PUBLIC "-//W3C//DTD SVG 20010904//EN"
 "http://www.w3.org/TR/2001/REC-SVG-20010904/DTD/svg10.dtd">
<svg version="1.0" xmlns="http://www.w3.org/2000/svg"
 width="192.000000pt" height="192.000000pt" viewBox="0 0 192.000000 192.000000"
 preserveAspectRatio="xMidYMid meet">
<metadata>
Created by potrace 1.10, written by Peter Selinger 2001-2011
</metadata>
<g transform="translate(0.000000,192.000000) scale(0.100000,-0.100000)"
fill="#000000" stroke="none">
<path d="M48 1765 l-3 -155 37 -62 c21 -35 46 -76 56 -93 10 -16 38 -64 62
-105 24 -41 50 -86 59 -100 8 -14 24 -41 34 -60 22 -40 268 -456 302 -510 58
-93 333 -564 341 -583 9 -25 23 -21 36 11 7 15 29 54 49 87 20 33 99 166 174
295 76 129 179 305 230 390 50 85 107 182 125 215 19 33 94 160 167 283 l133
223 0 160 c0 154 -1 160 -19 154 -26 -8 -1757 -9 -1770 -1 -6 4 -11 -49 -13
-149z m1752 -28 l0 -133 -173 -294 c-96 -162 -264 -448 -374 -635 -110 -187
-223 -380 -251 -428 -49 -87 -51 -88 -65 -65 -8 13 -202 341 -431 729 l-416
707 0 126 0 126 855 0 855 0 0 -133z"/>
<path d="M150 1735 l0 -85 800 0 800 0 0 85 0 85 -800 0 -800 0 0 -85z m114
55 c22 -8 26 -16 26 -53 0 -54 -13 -67 -67 -67 l-43 0 0 65 0 65 29 0 c16 0
41 -4 55 -10z m136 -5 c0 -9 -9 -15 -25 -15 -14 0 -25 -4 -25 -10 0 -5 11 -10
25 -10 16 0 25 -6 25 -15 0 -9 -9 -15 -25 -15 -14 0 -25 -4 -25 -10 0 -5 11
-10 25 -10 16 0 25 -6 25 -15 0 -11 -12 -15 -45 -15 l-45 0 0 65 0 65 45 0
c33 0 45 -4 45 -15z m106 -2 c17 -17 17 -18 0 -21 -9 -2 -23 1 -31 8 -9 7 -15
8 -19 1 -4 -6 7 -17 24 -26 25 -13 31 -22 28 -43 -3 -25 -7 -27 -48 -27 -39 0
-45 3 -48 23 -4 26 5 28 35 7 12 -8 24 -11 27 -6 3 5 -10 18 -29 30 -38 22
-45 44 -17 60 26 16 59 13 78 -6z m125 -4 c4 -7 4 -20 -1 -28 -4 -8 -3 -22 3
-32 17 -28 -8 -49 -59 -49 l-44 0 0 66 0 67 46 -6 c26 -2 50 -11 55 -18z m106
15 c19 -5 22 -13 21 -56 0 -50 8 -73 16 -47 2 8 10 34 18 59 11 37 18 46 39
48 24 3 27 -2 43 -56 9 -32 16 -61 16 -65 0 -12 -38 -7 -43 6 -3 10 -9 10 -26
0 -11 -7 -38 -13 -60 -13 -33 0 -40 4 -43 22 -2 12 -9 23 -16 26 -9 3 -11 -3
-6 -22 5 -23 3 -26 -20 -26 -25 0 -26 2 -26 58 0 32 3 62 7 65 8 9 50 9 80 1z
m200 -36 l7 -43 11 40 c9 30 18 41 34 43 19 3 22 0 17 -16 -4 -10 -12 -39 -19
-63 -10 -36 -18 -45 -39 -47 -24 -3 -28 2 -42 51 -20 70 -20 77 4 77 16 0 21
-9 27 -42z m162 5 c25 -94 25 -93 2 -93 -12 0 -21 5 -21 10 0 6 -7 10 -15 10
-8 0 -15 -4 -15 -10 0 -5 -11 -10 -25 -10 -14 0 -25 1 -25 3 0 2 7 26 16 53 9
27 17 55 20 62 2 6 15 12 28 12 21 0 27 -7 35 -37z m125 24 c13 -10 17 -24 14
-62 l-3 -50 -52 -3 -53 -3 0 65 0 66 38 0 c21 0 46 -6 56 -13z m125 4 c16 -10
19 -97 4 -112 -6 -6 -28 -9 -49 -7 l-39 3 -3 54 c-2 37 1 57 10 62 17 11 59
11 77 0z m120 -1 c14 -7 18 -22 19 -65 0 -47 -2 -55 -18 -55 -11 0 -20 8 -22
22 -5 32 -28 35 -28 4 0 -19 -5 -26 -20 -26 -18 0 -20 7 -20 65 l0 65 36 0
c19 0 43 -4 53 -10z m131 -5 c0 -9 -9 -15 -25 -15 -14 0 -25 -4 -25 -10 0 -5
11 -10 25 -10 16 0 25 -6 25 -15 0 -9 -9 -15 -25 -15 -14 0 -25 -4 -25 -10 0
-5 11 -10 25 -10 16 0 25 -6 25 -15 0 -11 -12 -15 -44 -15 l-44 0 -4 61 c-1
33 -1 63 1 65 2 2 24 4 48 4 32 0 43 -4 43 -15z m105 2 c28 -21 9 -42 -20 -23
-13 9 -26 12 -29 7 -3 -5 10 -18 29 -30 55 -32 41 -71 -26 -71 -29 0 -39 5
-44 21 -10 29 0 34 29 15 14 -8 27 -12 30 -7 3 5 -10 18 -29 30 -38 22 -45 44
-17 60 24 14 55 13 77 -2z"/>
<path d="M222 1733 c2 -21 8 -38 13 -38 6 0 11 17 13 38 3 29 0 37 -13 37 -13
0 -16 -8 -13 -37z"/>
<path d="M1180 1729 c0 -24 4 -38 10 -34 6 3 10 22 10 41 0 19 -4 34 -10 34
-5 0 -10 -18 -10 -41z"/>
<path d="M1300 1730 c0 -22 5 -40 10 -40 6 0 10 18 10 40 0 22 -4 40 -10 40
-5 0 -10 -18 -10 -40z"/>
<path d="M160 1597 c0 -4 9 -20 19 -35 19 -27 230 -378 541 -902 89 -151 177
-298 194 -327 17 -29 34 -53 38 -53 4 0 15 15 24 33 9 17 65 113 124 212 59
99 201 338 315 530 114 193 234 394 266 447 33 53 59 98 59 100 0 2 -355 3
-790 3 -434 0 -790 -4 -790 -8z m1530 -27 c0 -11 -37 -79 -90 -165 -20 -33
-61 -100 -90 -150 -59 -98 -90 -138 -90 -114 0 8 9 32 19 53 18 35 37 104 46
166 2 14 8 45 14 70 12 53 14 107 4 96 -5 -4 -12 -31 -18 -59 -8 -43 -14 -52
-38 -60 -35 -11 -40 -7 -27 27 l10 27 -63 -8 c-98 -13 -265 -8 -346 10 -72 16
-79 16 -175 -4 -101 -21 -229 -22 -339 -3 -44 8 -43 22 -6 -131 23 -96 48
-156 82 -193 16 -18 18 -25 8 -35 -10 -9 -16 -8 -29 10 -9 11 -26 23 -37 25
-29 5 -71 114 -96 249 -25 135 -37 172 -38 116 -1 -39 35 -221 49 -247 4 -8
10 -30 13 -49 3 -18 15 -43 27 -56 21 -23 79 -149 80 -174 0 -23 -14 -3 -55
79 -21 41 -53 98 -70 125 -28 43 -53 87 -109 190 -6 11 -13 22 -16 25 -10 10
-60 90 -60 96 0 3 -9 19 -21 35 -44 62 -81 59 726 59 458 0 735 -4 735 -10z
m-635 -147 c75 -16 181 -19 270 -8 43 6 55 4 55 -6 0 -8 -4 -18 -8 -24 -4 -5
-151 -58 -326 -118 -241 -81 -322 -104 -328 -95 -14 24 -21 99 -9 111 23 23 9
24 -54 4 -68 -22 -80 -33 -43 -39 16 -2 26 -17 39 -57 10 -29 16 -57 13 -62
-13 -22 -44 -7 -67 34 -26 44 -93 245 -84 253 3 3 45 1 95 -5 94 -10 183 -3
277 24 28 7 61 11 75 8 14 -3 57 -12 95 -20z m420 -42 c-3 -11 -15 -52 -26
-93 -40 -144 -114 -247 -263 -362 -89 -69 -220 -156 -236 -156 -23 0 -179 105
-267 178 -29 25 -53 39 -53 33 0 -20 104 -110 128 -111 6 0 12 -4 12 -8 0 -8
61 -51 132 -95 30 -19 78 -23 78 -7 0 6 5 10 10 10 15 0 150 92 230 155 67 54
174 163 183 187 2 7 7 10 11 7 8 -8 -31 -82 -105 -201 -28 -46 -55 -92 -60
-103 -5 -11 -29 -50 -53 -88 -35 -54 -45 -64 -49 -48 -4 15 -10 18 -28 13 -19
-5 -20 -7 -6 -10 9 -2 17 -10 17 -18 0 -8 -8 -15 -17 -15 -17 -1 -17 -2 0 -6
30 -8 20 -33 -13 -33 -30 0 -30 1 -30 54 0 54 0 55 33 59 17 2 -17 5 -76 5
-60 1 -117 -3 -128 -8 -24 -13 -28 -80 -4 -80 11 0 15 11 15 40 0 29 4 40 15
40 11 0 15 -12 15 -46 0 -28 4 -43 10 -39 6 4 9 23 8 43 -3 35 -2 36 37 38 51
4 62 -7 61 -58 -1 -41 -3 -43 -33 -46 -33 -3 -33 -3 -35 45 l-1 48 -6 -45 -6
-45 -62 -2 -63 -3 0 54 c0 44 4 55 18 59 9 3 -7 5 -36 6 -48 1 -54 -1 -71 -30
l-19 -30 -43 71 c-24 39 -59 93 -76 120 -18 27 -33 53 -33 56 0 4 -7 12 -16
19 -15 10 -13 13 14 24 26 11 29 17 25 41 -3 25 0 30 22 36 20 5 33 0 54 -20
32 -31 46 -34 29 -6 -7 11 -19 20 -26 20 -8 0 -12 6 -9 13 8 25 32 11 47 -28
8 -22 19 -47 25 -55 5 -8 8 -26 6 -40 -2 -20 0 -23 10 -12 15 14 46 16 51 3 4
-11 114 -81 128 -81 16 0 152 92 225 152 126 103 206 226 222 344 4 35 12 48
32 59 37 20 54 19 46 -4z m-135 -114 c-53 -144 -120 -220 -305 -347 -87 -58
-89 -60 -113 -44 -14 9 -40 25 -59 36 -37 22 -41 33 -15 43 14 6 11 10 -16 23
-18 10 -44 35 -57 57 l-23 40 301 141 c166 77 305 139 309 137 4 -2 -6 -41
-22 -86z m-597 -161 c-21 -29 -63 -43 -74 -25 -11 18 28 49 63 49 29 0 29 0
11 -24z m-124 -33 c-12 -15 -12 -16 4 -10 25 9 21 -7 -5 -18 -13 -6 -24 -20
-26 -32 -2 -13 -8 -23 -14 -23 -6 0 -8 9 -5 20 3 12 0 20 -8 20 -7 0 -15 10
-17 23 -4 20 0 23 26 25 16 2 32 5 35 7 13 13 22 3 10 -12z m219 -380 c4 -25
-7 -30 -26 -11 -9 9 -12 4 -12 -22 1 -31 2 -33 14 -17 18 23 28 21 24 -5 -2
-18 -10 -23 -33 -23 -28 0 -30 3 -33 39 -5 54 3 68 35 64 20 -2 29 -9 31 -25z
m264 -101 c6 -2 -20 -57 -71 -145 -59 -104 -76 -123 -95 -104 -23 23 -136 222
-136 239 0 3 8 8 18 10 16 4 268 3 284 0z"/>
<path d="M430 1535 c37 -19 181 -45 256 -45 35 0 108 10 163 21 l99 21 106
-21 c58 -11 136 -21 173 -21 72 0 240 33 257 50 13 13 18 13 -104 -10 -133
-25 -202 -25 -320 1 -99 22 -120 21 -250 -6 -100 -20 -175 -19 -290 5 -112 23
-124 24 -90 5z"/>
</g>
</svg>
