<?xml version="1.0" encoding="utf-8"?><!-- Uploaded to: SVG Repo, www.svgrepo.com, Generator: SVG Repo Mixer Tools -->
<svg width="800px" height="800px" viewBox="0 0 64 64" xmlns="http://www.w3.org/2000/svg" stroke-width="3" stroke="#000000" fill="none"><path d="M54.49,12.3c0-.1-.09-.16-.17-.09-1.57,1.36-5.36,2.46-5.84,2.51a.11.11,0,0,1-.09,0c-2.78-4.44-9.19-3.24-9.19-3.24C29.78,13.48,30.82,23,31,24c0,.05,0,.09-.09.09-10.48.52-19.63-9.22-20.67-10.37a.11.11,0,0,0-.17,0A10.57,10.57,0,0,0,12.78,27a.11.11,0,0,1,0,.19,12.87,12.87,0,0,1-4-.77c-.06,0-.13,0-.13.1.14,6.2,6.22,9,7.63,9.59a.1.1,0,0,1,0,.19,13.4,13.4,0,0,1-3.85.27.11.11,0,0,0-.11.14c1.27,4.78,7.5,6.78,8.62,7.11A.11.11,0,0,1,21,44c-3.85,3.44-11.44,4.35-13,4.51a.11.11,0,0,0-.06.19c5.82,4,21.06,7.32,32.7-2.63A30.3,30.3,0,0,0,51,21.83a.09.09,0,0,1,.05-.08,14.22,14.22,0,0,0,5.06-5.06c0-.1,0-.16-.15-.13a5.63,5.63,0,0,1-3.15.17S54.52,13.77,54.49,12.3Z" stroke-linecap="round"/></svg>